<?xml version="1.0" encoding="UTF-8" standalone="no"?>
<svg
   viewBox="0 0 87.187173 88.150049"
   height="88.150047"
   width="87.187172"
   id="svg2"
   version="1.1"
   sodipodi:docname="binary-python-mini.svg"
   inkscape:version="1.1 (c4e8f9ed74, 2021-05-24)"
   xmlns:inkscape="http://www.inkscape.org/namespaces/inkscape"
   xmlns:sodipodi="http://sodipodi.sourceforge.net/DTD/sodipodi-0.dtd"
   xmlns:xlink="http://www.w3.org/1999/xlink"
   xmlns="http://www.w3.org/2000/svg"
   xmlns:svg="http://www.w3.org/2000/svg"
   xmlns:rdf="http://www.w3.org/1999/02/22-rdf-syntax-ns#"
   xmlns:cc="http://creativecommons.org/ns#"
   xmlns:dc="http://purl.org/dc/elements/1.1/">
  <sodipodi:namedview
     id="namedview4589"
     pagecolor="#ffffff"
     bordercolor="#111111"
     borderopacity="1"
     inkscape:pageshadow="0"
     inkscape:pageopacity="0"
     inkscape:pagecheckerboard="1"
     showgrid="false"
     inkscape:zoom="2.4069554"
     inkscape:cx="6.4396707"
     inkscape:cy="42.584919"
     inkscape:window-width="1898"
     inkscape:window-height="1040"
     inkscape:window-x="1376"
     inkscape:window-y="28"
     inkscape:window-maximized="1"
     inkscape:current-layer="svg2" />
  <metadata
     id="metadata8">
    <rdf:RDF>
      <cc:Work
         rdf:about="">
        <dc:format>image/svg+xml</dc:format>
        <dc:type
           rdf:resource="http://purl.org/dc/dcmitype/StillImage" />
      </cc:Work>
    </rdf:RDF>
  </metadata>
  <defs
     id="defs6">
    <clipPath
       id="clipPath1337"
       clipPathUnits="userSpaceOnUse">
      <rect
         y="-1.7571625"
         x="-3.1578701"
         height="128.87502"
         width="131.34534"
         id="rect1339"
         style="fill:#ff0000;fill-opacity:0.216873;stroke-width:0.977641" />
    </clipPath>
    <linearGradient
       x1="26.648937"
       y1="20.603781"
       x2="135.66525"
       y2="114.39767"
       id="linearGradient1478"
       xlink:href="#linearGradient4689"
       gradientUnits="userSpaceOnUse"
       gradientTransform="matrix(0.562541,0,0,0.567972,-9.399749,-5.305317)" />
    <linearGradient
       id="linearGradient4689">
      <stop
         style="stop-color:#5a9fd4;stop-opacity:1"
         offset="0"
         id="stop4691" />
      <stop
         style="stop-color:#306998;stop-opacity:1"
         offset="1"
         id="stop4693" />
    </linearGradient>
    <linearGradient
       x1="150.96111"
       y1="192.35176"
       x2="112.03144"
       y2="137.27299"
       id="linearGradient1475"
       xlink:href="#linearGradient4671"
       gradientUnits="userSpaceOnUse"
       gradientTransform="matrix(0.562541,0,0,0.567972,-9.399749,-5.305317)" />
    <linearGradient
       id="linearGradient4671">
      <stop
         style="stop-color:#ffd43b;stop-opacity:1"
         offset="0"
         id="stop4673" />
      <stop
         style="stop-color:#ffe873;stop-opacity:1"
         offset="1"
         id="stop4675" />
    </linearGradient>
    <radialGradient
       cx="61.518883"
       cy="132.28575"
       r="29.036913"
       fx="61.518883"
       fy="132.28575"
       id="radialGradient1480-6"
       xlink:href="#linearGradient2795"
       gradientUnits="userSpaceOnUse"
       gradientTransform="matrix(2.382716e-8,-0.296405,1.43676,4.683673e-7,-128.544,150.5202)" />
    <linearGradient
       id="linearGradient2795">
      <stop
         style="stop-color:#b8b8b8;stop-opacity:0.49803922"
         offset="0"
         id="stop2797" />
      <stop
         style="stop-color:#7f7f7f;stop-opacity:0"
         offset="1"
         id="stop2799" />
    </linearGradient>
    <clipPath
       id="clipPath1337-5"
       clipPathUnits="userSpaceOnUse">
      <rect
         y="-1.7571625"
         x="-3.1578701"
         height="128.87502"
         width="131.34534"
         id="rect1339-6"
         style="fill:#ff0000;fill-opacity:0.216873;stroke-width:0.977641" />
    </clipPath>
    <linearGradient
       x1="26.648937"
       y1="20.603781"
       x2="135.66525"
       y2="114.39767"
       id="linearGradient1478-2"
       xlink:href="#linearGradient4689"
       gradientUnits="userSpaceOnUse"
       gradientTransform="matrix(0.44121772,0,0,0.44547742,185.55879,318.95056)" />
    <linearGradient
       x1="150.96111"
       y1="192.35176"
       x2="112.03144"
       y2="137.27299"
       id="linearGradient1475-2"
       xlink:href="#linearGradient4671"
       gradientUnits="userSpaceOnUse"
       gradientTransform="matrix(0.44121772,0,0,0.44547742,185.55879,318.95056)" />
    <radialGradient
       cx="61.518883"
       cy="132.28575"
       r="29.036913"
       fx="61.518883"
       fy="132.28575"
       id="radialGradient1480-6-9"
       xlink:href="#linearGradient2795"
       gradientUnits="userSpaceOnUse"
       gradientTransform="matrix(1.3718373e-8,-0.18819757,0.82720767,2.9738226e-7,131.66773,439.86629)" />
    <clipPath
       clipPathUnits="userSpaceOnUse"
       id="clipPath3799">
      <circle
         style="fill:none;fill-rule:evenodd;stroke:#325e12;stroke-width:7.9918;stop-color:#000000"
         id="circle3801"
         cx="259"
         cy="146"
         r="85.048279" />
    </clipPath>
  </defs>
  <g
     id="g3519"
     transform="translate(-197.31677,-328.12908)">
    <path
       id="path1948-9"
       style="fill:url(#linearGradient1478-2);fill-opacity:1;stroke-width:0.78433"
       d="m 240.39121,328.1298 c -3.59509,0.0167 -7.02833,0.32332 -10.04922,0.85786 -8.89918,1.57219 -10.51492,4.86293 -10.51493,10.9316 v 8.01487 h 21.02985 v 2.67162 h -21.02985 -7.89231 c -6.11186,0 -11.46358,3.67358 -13.13753,10.66199 -1.93088,8.01033 -2.01652,13.00891 0,21.37299 1.49488,6.22589 5.06484,10.66198 11.1767,10.66198 h 7.23054 v -9.60804 c 0,-6.94124 6.00573,-13.06399 13.13753,-13.06399 h 21.00533 c 5.84714,0 10.51493,-4.81435 10.51492,-10.6865 v -20.02492 c 0,-5.69921 -4.80792,-9.98042 -10.51492,-10.9316 -3.61261,-0.60136 -7.36101,-0.87456 -10.95611,-0.85786 z m -11.37278,6.44621 c 2.17224,0 3.94616,1.8029 3.94616,4.01969 0,2.20894 -1.77392,3.99518 -3.94616,3.99518 -2.18003,0 -3.94616,-1.78624 -3.94616,-3.99518 0,-2.21679 1.76613,-4.01969 3.94616,-4.01969 z" />
    <path
       id="path1950-2"
       style="fill:url(#linearGradient1475-2);fill-opacity:1;stroke-width:0.78433"
       d="m 264.48485,350.60575 v 9.33843 c 0,7.23996 -6.13809,13.33361 -13.13753,13.33361 h -21.00533 c -5.75372,0 -10.51492,4.9244 -10.51493,10.6865 v 20.02492 c 0,5.6992 4.95586,9.05141 10.51493,10.68649 6.65686,1.95738 13.04045,2.31113 21.00533,0 5.29435,-1.53289 10.51493,-4.61783 10.51492,-10.68649 v -8.01487 h -21.00533 v -2.67163 h 21.00533 10.51493 c 6.11186,0 8.38939,-4.26315 10.51492,-10.66198 2.19559,-6.5875 2.10217,-12.92244 0,-21.37299 -1.51045,-6.08439 -4.39529,-10.66199 -10.51492,-10.66199 z m -11.81397,50.71183 c 2.18003,10e-6 3.94616,1.78625 3.94616,3.99518 0,2.21679 -1.76614,4.01969 -3.94616,4.01969 -2.17224,0 -3.94616,-1.8029 -3.94616,-4.01969 0,-2.20893 1.77392,-3.99518 3.94616,-3.99518 z" />
  </g>
  <rect
     style="font-variation-settings:normal;opacity:1;vector-effect:none;fill:#ffffff;fill-opacity:1;fill-rule:evenodd;stroke:none;stroke-width:0.25887;stroke-linecap:butt;stroke-linejoin:miter;stroke-miterlimit:4;stroke-dasharray:none;stroke-dashoffset:0;stroke-opacity:1;-inkscape-stroke:none;stop-color:#000000;stop-opacity:1"
     id="rect3623"
     width="13.401215"
     height="9.6666718"
     x="13.817404"
     y="192.09219" />
</svg>
