<?xml version="1.0" encoding="UTF-8" standalone="no"?>
<!-- Created with Inkscape (http://www.inkscape.org/) -->

<svg
   width="67.73333mm"
   height="67.73333mm"
   viewBox="0 0 67.73333 67.73333"
   version="1.1"
   id="svg5"
   xml:space="preserve"
   inkscape:version="1.2.1 (9c6d41e410, 2022-07-14, custom)"
   sodipodi:docname="orcid.svg"
   xmlns:inkscape="http://www.inkscape.org/namespaces/inkscape"
   xmlns:sodipodi="http://sodipodi.sourceforge.net/DTD/sodipodi-0.dtd"
   xmlns="http://www.w3.org/2000/svg"
   xmlns:svg="http://www.w3.org/2000/svg"><sodipodi:namedview
     id="namedview7"
     pagecolor="#ffffff"
     bordercolor="#666666"
     borderopacity="1.0"
     inkscape:showpageshadow="2"
     inkscape:pageopacity="0.0"
     inkscape:pagecheckerboard="0"
     inkscape:deskcolor="#d1d1d1"
     inkscape:document-units="mm"
     showgrid="false"
     inkscape:zoom="0.54866744"
     inkscape:cx="378.18901"
     inkscape:cy="-162.21119"
     inkscape:window-width="1920"
     inkscape:window-height="1065"
     inkscape:window-x="0"
     inkscape:window-y="15"
     inkscape:window-maximized="1"
     inkscape:current-layer="layer1" /><defs
     id="defs2" /><g
     inkscape:label="Layer 1"
     inkscape:groupmode="layer"
     id="layer1"
     transform="translate(-54.628235,-73.012936)"><g
       id="g417"
       transform="scale(0.26458333)"><symbol
         id="dribbble"
         fill-rule="evenodd"
         clip-rule="evenodd"
         stroke-linejoin="round"
         stroke-miterlimit="1.414"><path
           d="M 8,16 C 3.59,16 0,12.41 0,8 0,3.59 3.59,0 8,0 c 4.41,0 8,3.59 8,8 0,4.41 -3.59,8 -8,8 z M 14.747,9.095 C 14.513,9.021 12.632,8.46 10.49,8.803 c 0.894,2.456 1.258,4.456 1.328,4.872 1.533,-1.037 2.624,-2.68 2.93,-4.58 z M 10.67,14.3 C 10.568,13.7 10.17,11.612 9.21,9.12 L 9.166,9.134 C 5.312,10.477 3.93,13.15 3.806,13.4 4.964,14.305 6.42,14.844 8,14.844 c 0.947,0 1.85,-0.194 2.67,-0.543 z M 2.923,12.58 C 3.078,12.314 4.953,9.21 8.478,8.07 8.568,8.04 8.658,8.014 8.748,7.99 8.575,7.6 8.388,7.212 8.193,6.83 4.78,7.85 1.47,7.807 1.17,7.8 L 1.167,8.008 c 0,1.755 0.665,3.358 1.756,4.57 z M 1.31,6.61 C 1.617,6.615 4.432,6.627 7.628,5.778 6.496,3.766 5.275,2.073 5.095,1.826 3.183,2.728 1.755,4.49 1.311,6.611 Z M 6.4,1.368 c 0.188,0.253 1.43,1.943 2.548,4 C 11.378,4.458 12.408,3.075 12.53,2.9 11.323,1.827 9.736,1.176 8,1.176 7.45,1.176 6.913,1.242 6.4,1.366 Z M 13.29,3.69 C 13.145,3.884 12,5.352 9.474,6.384 c 0.16,0.325 0.31,0.656 0.453,0.99 0.05,0.117 0.1,0.235 0.147,0.352 2.274,-0.286 4.533,0.172 4.758,0.22 -0.015,-1.613 -0.59,-3.094 -1.543,-4.257 z"
           id="path311" /></symbol><symbol
         id="facebook"
         fill-rule="evenodd"
         clip-rule="evenodd"
         stroke-linejoin="round"
         stroke-miterlimit="1.414"><path
           d="M 15.117,0 H 0.883 C 0.395,0 0,0.395 0,0.883 V 15.117 C 0,15.605 0.395,16 0.883,16 H 8.546 V 9.804 H 6.46 V 7.39 H 8.546 V 5.607 c 0,-2.066 1.262,-3.19 3.106,-3.19 0.883,0 1.642,0.064 1.863,0.094 v 2.16 h -1.28 c -1,0 -1.195,0.48 -1.195,1.18 v 1.54 h 2.39 l -0.31,2.42 H 11.04 V 16 h 4.077 C 15.605,16 16,15.605 16,15.117 V 0.883 C 16,0.395 15.605,0 15.117,0"
           fill-rule="nonzero"
           id="path314" /></symbol><symbol
         id="flickr"
         fill-rule="evenodd"
         clip-rule="evenodd"
         stroke-linejoin="round"
         stroke-miterlimit="1.414"><path
           d="m 0,8 c 0,2.05 1.662,3.71 3.71,3.71 C 5.76,11.71 7.423,10.05 7.423,8 7.423,5.95 5.76,4.29 3.71,4.29 1.663,4.29 0,5.95 0,8 Z m 8.577,0 c 0,2.05 1.662,3.71 3.712,3.71 C 14.33,11.71 16,10.05 16,8 16,5.95 14.338,4.29 12.29,4.29 10.24,4.29 8.577,5.95 8.577,8 Z"
           id="path317" /></symbol><symbol
         id="github"
         fill-rule="evenodd"
         clip-rule="evenodd"
         stroke-linejoin="round"
         stroke-miterlimit="1.414"><path
           d="M 8,0 C 3.58,0 0,3.582 0,8 c 0,3.535 2.292,6.533 5.47,7.59 0.4,0.075 0.547,-0.172 0.547,-0.385 0,-0.19 -0.007,-0.693 -0.01,-1.36 -2.226,0.483 -2.695,-1.073 -2.695,-1.073 -0.364,-0.924 -0.89,-1.17 -0.89,-1.17 -0.725,-0.496 0.056,-0.486 0.056,-0.486 0.803,0.056 1.225,0.824 1.225,0.824 0.714,1.223 1.873,0.87 2.33,0.665 0.072,-0.517 0.278,-0.87 0.507,-1.07 -1.777,-0.2 -3.644,-0.888 -3.644,-3.953 0,-0.873 0.31,-1.587 0.823,-2.147 -0.09,-0.202 -0.36,-1.015 0.07,-2.117 0,0 0.67,-0.215 2.2,0.82 0.64,-0.178 1.32,-0.266 2,-0.27 0.68,0.004 1.36,0.092 2,0.27 1.52,-1.035 2.19,-0.82 2.19,-0.82 0.43,1.102 0.16,1.915 0.08,2.117 0.51,0.56 0.82,1.274 0.82,2.147 0,3.073 -1.87,3.75 -3.65,3.947 0.28,0.24 0.54,0.73 0.54,1.48 0,1.07 -0.01,1.93 -0.01,2.19 0,0.21 0.14,0.46 0.55,0.38 C 13.71,14.53 16,11.53 16,8 16,3.582 12.418,0 8,0"
           id="path320" /></symbol><symbol
         id="instagram"
         fill-rule="evenodd"
         clip-rule="evenodd"
         stroke-linejoin="round"
         stroke-miterlimit="1.414"><path
           d="M 8,0 C 5.827,0 5.555,0.01 4.702,0.048 3.85,0.088 3.27,0.222 2.76,0.42 2.234,0.624 1.787,0.898 1.343,1.343 0.898,1.787 0.623,2.233 0.42,2.76 0.222,3.27 0.087,3.85 0.048,4.702 0.008,5.555 0,5.827 0,8 c 0,2.173 0.01,2.445 0.048,3.298 0.04,0.852 0.174,1.433 0.372,1.942 0.204,0.526 0.478,0.973 0.923,1.417 0.444,0.445 0.89,0.72 1.417,0.923 0.51,0.198 1.09,0.333 1.942,0.372 C 5.555,15.992 5.827,16 8,16 c 2.173,0 2.445,-0.01 3.298,-0.048 0.852,-0.04 1.433,-0.174 1.942,-0.372 0.526,-0.204 0.973,-0.478 1.417,-0.923 0.445,-0.444 0.72,-0.89 0.923,-1.417 0.198,-0.51 0.333,-1.09 0.372,-1.942 C 15.992,10.445 16,10.173 16,8 16,5.827 15.99,5.555 15.952,4.702 15.912,3.85 15.778,3.269 15.58,2.76 15.376,2.234 15.102,1.787 14.657,1.343 14.213,0.898 13.767,0.623 13.24,0.42 12.73,0.222 12.15,0.087 11.298,0.048 10.445,0.008 10.173,0 8,0 Z m 0,1.44 c 2.136,0 2.39,0.01 3.233,0.048 0.78,0.036 1.203,0.166 1.485,0.276 0.374,0.145 0.64,0.318 0.92,0.598 0.28,0.28 0.453,0.546 0.598,0.92 0.11,0.282 0.24,0.705 0.276,1.485 0.038,0.844 0.047,1.097 0.047,3.233 0,2.136 -0.01,2.39 -0.05,3.233 -0.04,0.78 -0.17,1.203 -0.28,1.485 -0.15,0.374 -0.32,0.64 -0.6,0.92 -0.28,0.28 -0.55,0.453 -0.92,0.598 -0.28,0.11 -0.71,0.24 -1.49,0.276 -0.85,0.038 -1.1,0.047 -3.24,0.047 -2.14,0 -2.39,-0.01 -3.24,-0.05 -0.78,-0.04 -1.21,-0.17 -1.49,-0.28 -0.38,-0.15 -0.64,-0.32 -0.92,-0.6 -0.28,-0.28 -0.46,-0.55 -0.6,-0.92 -0.11,-0.28 -0.24,-0.71 -0.28,-1.49 -0.03,-0.84 -0.04,-1.1 -0.04,-3.23 0,-2.13 0.01,-2.39 0.04,-3.24 0.04,-0.78 0.17,-1.21 0.28,-1.49 0.14,-0.38 0.32,-0.64 0.6,-0.92 0.28,-0.28 0.54,-0.46 0.92,-0.6 0.28,-0.11 0.7,-0.24 1.48,-0.28 0.85,-0.03 1.1,-0.04 3.24,-0.04 z m 0,2.452 c -2.27,0 -4.108,1.84 -4.108,4.108 0,2.27 1.84,4.108 4.108,4.108 2.27,0 4.108,-1.84 4.108,-4.108 0,-2.27 -1.84,-4.108 -4.108,-4.108 z m 0,6.775 C 6.527,10.667 5.333,9.473 5.333,8 5.333,6.527 6.527,5.333 8,5.333 c 1.473,0 2.667,1.194 2.667,2.667 0,1.473 -1.194,2.667 -2.667,2.667 z M 13.23,3.73 c 0,0.53 -0.43,0.96 -0.96,0.96 -0.53,0 -0.96,-0.43 -0.96,-0.96 0,-0.53 0.43,-0.96 0.96,-0.96 0.53,0 0.96,0.43 0.96,0.96 z"
           id="path323" /></symbol><symbol
         id="linkedin"
         fill-rule="evenodd"
         clip-rule="evenodd"
         stroke-linejoin="round"
         stroke-miterlimit="1.414"><path
           d="m 13.632,13.635 h -2.37 V 9.922 c 0,-0.886 -0.018,-2.025 -1.234,-2.025 -1.235,0 -1.424,0.964 -1.424,1.96 v 3.778 H 6.234 V 6 H 8.51 v 1.04 h 0.03 c 0.318,-0.6 1.092,-1.233 2.247,-1.233 2.4,0 2.845,1.58 2.845,3.637 v 4.188 z M 3.558,4.955 c -0.762,0 -1.376,-0.617 -1.376,-1.377 0,-0.758 0.614,-1.375 1.376,-1.375 0.76,0 1.376,0.617 1.376,1.375 0,0.76 -0.617,1.377 -1.376,1.377 z m 1.188,8.68 H 2.37 V 6 H 4.746 Z M 14.816,0 H 1.18 C 0.528,0 0,0.516 0,1.153 V 14.847 C 0,15.484 0.528,16 1.18,16 H 14.815 C 15.467,16 16,15.484 16,14.847 V 1.153 C 16,0.516 15.467,0 14.815,0 Z"
           fill-rule="nonzero"
           id="path326" /></symbol><symbol
         id="pinterest"
         fill-rule="evenodd"
         clip-rule="evenodd"
         stroke-linejoin="round"
         stroke-miterlimit="1.414"><path
           d="M 8,0 C 3.582,0 0,3.582 0,8 0,11.39 2.108,14.285 5.084,15.45 5.014,14.817 4.951,13.846 5.112,13.155 5.258,12.53 6.05,9.178 6.05,9.178 c 0,0 -0.24,-0.48 -0.24,-1.188 0,-1.11 0.646,-1.943 1.448,-1.943 0.683,0 1.012,0.513 1.012,1.127 0,0.687 -0.436,1.713 -0.662,2.664 -0.19,0.797 0.4,1.445 1.185,1.445 1.42,0 2.514,-1.498 2.514,-3.662 0,-1.91 -1.376,-3.25 -3.342,-3.25 -2.276,0 -3.61,1.71 -3.61,3.47 0,0.69 0.263,1.43 0.593,1.83 0.066,0.08 0.075,0.15 0.057,0.23 -0.06,0.25 -0.196,0.8 -0.223,0.91 -0.035,0.15 -0.115,0.18 -0.268,0.11 C 3.516,10.46 2.89,9 2.89,7.82 2.89,5.3 4.724,2.98 8.177,2.98 c 2.774,0 4.932,1.98 4.932,4.62 0,2.76 -1.74,4.98 -4.16,4.98 -0.81,0 -1.57,-0.42 -1.84,-0.92 l -0.5,1.9 c -0.18,0.698 -0.67,1.57 -1,2.1 0.75,0.23 1.54,0.357 2.37,0.357 4.41,0 8,-3.58 8,-8 0,-4.42 -3.59,-8 -8,-8 z"
           fill-rule="nonzero"
           id="path329" /></symbol><symbol
         id="rss"
         fill-rule="evenodd"
         clip-rule="evenodd"
         stroke-linejoin="round"
         stroke-miterlimit="1.414"><path
           d="M 12.8,16 C 12.8,8.978 7.022,3.2 0,3.2 V 0 C 8.777,0 16,7.223 16,16 Z M 2.194,11.61 c 1.21,0 2.195,0.985 2.195,2.196 0,1.21 -0.99,2.194 -2.2,2.194 C 0.98,16 0,15.017 0,13.806 0,12.596 0.983,11.611 2.194,11.611 Z M 10.606,16 H 7.496 C 7.496,11.887 4.113,8.503 0,8.503 v -3.11 c 5.818,0 10.606,4.79 10.606,10.607 z"
           id="path332" /></symbol><symbol
         id="stackoverflow"
         class="svg-icon"
         fill-rule="evenodd"
         clip-rule="evenodd"
         stroke-linejoin="round"
         stroke-miterlimit="1.414"><path
           d="m 12.658,14.577 v -4.27 h 1.423 V 16 H 1.23 v -5.693 h 1.42 v 4.27 H 12.656 Z M 4.075,13.154 h 7.16 V 11.73 h -7.16 z m 0.173,-3.235 6.987,1.46 0.3,-1.38 L 4.55,8.54 4.248,9.92 Z m 0.906,-3.37 6.47,3.02 0.602,-1.3 -6.47,-3.02 -0.602,1.29 z m 1.81,-3.19 5.478,4.57 0.906,-1.08 L 7.87,2.28 6.97,3.358 Z M 10.502,0 9.338,0.863 13.608,6.598 14.772,5.736 10.5,0 Z"
           id="path335" /></symbol><symbol
         id="twitter"
         fill-rule="evenodd"
         clip-rule="evenodd"
         stroke-linejoin="round"
         stroke-miterlimit="1.414"><path
           d="m 16,3.038 c -0.59,0.26 -1.22,0.437 -1.885,0.517 0.677,-0.407 1.198,-1.05 1.443,-1.816 -0.634,0.37 -1.337,0.64 -2.085,0.79 -0.598,-0.64 -1.45,-1.04 -2.396,-1.04 -1.812,0 -3.282,1.47 -3.282,3.28 0,0.26 0.03,0.51 0.085,0.75 C 5.152,5.389 2.733,4.079 1.114,2.099 0.83,2.58 0.67,3.14 0.67,3.75 0.67,4.89 1.25,5.893 2.13,6.482 1.592,6.465 1.085,6.317 0.643,6.072 v 0.04 c 0,1.59 1.13,2.918 2.633,3.22 C 3,9.406 2.71,9.446 2.411,9.446 c -0.21,0 -0.41,-0.02 -0.61,-0.058 0.42,1.304 1.63,2.253 3.07,2.28 -1.12,0.88 -2.54,1.404 -4.07,1.404 -0.26,0 -0.52,-0.015 -0.78,-0.045 1.46,0.93 3.18,1.474 5.04,1.474 6.04,0 9.34,-5 9.34,-9.33 0,-0.14 0,-0.28 -0.01,-0.42 0.64,-0.46 1.2,-1.04 1.64,-1.7 z"
           fill-rule="nonzero"
           id="path338" /></symbol><symbol
         id="youtube"
         fill-rule="evenodd"
         clip-rule="evenodd"
         stroke-linejoin="round"
         stroke-miterlimit="1.414"><path
           d="m 0,7.345 c 0,-1.294 0.16,-2.59 0.16,-2.59 0,0 0.156,-1.1 0.636,-1.587 C 1.404,2.531 2.204,2.551 2.56,2.484 3.84,2.36 8,2.324 8,2.324 c 0,0 3.362,0.004 5.6,0.166 0.314,0.038 0.996,0.04 1.604,0.678 0.48,0.486 0.636,1.588 0.636,1.588 0,0 0.16,1.294 0.16,2.59 v 1.258 c 0,1.296 -0.16,2.59 -0.16,2.59 0,0 -0.156,1.102 -0.636,1.588 -0.608,0.638 -1.29,0.64 -1.604,0.678 -2.238,0.162 -5.6,0.166 -5.6,0.166 0,0 -4.16,-0.037 -5.44,-0.16 C 2.204,13.399 1.404,13.419 0.796,12.782 0.316,12.295 0.16,11.195 0.16,11.195 0.16,11.195 0,9.9 0,8.605 Z m 6.348,2.73 V 5.58 l 4.323,2.255 -4.32,2.24 z"
           id="path341" /></symbol><symbol
         id="mastodon"
         fill-rule="evenodd"
         clip-rule="evenodd"
         stroke-linejoin="round"
         stroke-miterlimit="1.414"><path
           transform="scale(0.07)"
           d="m 211.80734,139.0875 c -3.18125,16.36625 -28.4925,34.2775 -57.5625,37.74875 -15.15875,1.80875 -30.08375,3.47125 -45.99875,2.74125 -26.0275,-1.1925 -46.565,-6.2125 -46.565,-6.2125 0,2.53375 0.15625,4.94625 0.46875,7.2025 3.38375,25.68625 25.47,27.225 46.39125,27.9425 21.11625,0.7225 39.91875,-5.20625 39.91875,-5.20625 l 0.8675,19.09 c 0,0 -14.77,7.93125 -41.08125,9.39 -14.50875,0.7975 -32.52375,-0.365 -53.50625,-5.91875 C 9.23234,213.82 1.40609,165.31125 0.20859,116.09125 -0.15641,101.4775 0.06859,87.6975 0.06859,76.1725 0.06859,25.8425 33.04484,11.09 33.04484,11.09 49.67234,3.45375 78.20359,0.2425 107.86484,0 h 0.72875 c 29.66125,0.2425 58.21125,3.45375 74.8375,11.09 0,0 32.975,14.7525 32.975,65.0825 0,0 0.41375,37.13375 -4.59875,62.915"
           id="path344" /><path
           transform="scale(0.07)"
           fill="#ffffff"
           d="m 177.50984,80.077 v 60.94125 h -24.14375 v -59.15 c 0,-12.46875 -5.24625,-18.7975 -15.74,-18.7975 -11.6025,0 -17.4175,7.5075 -17.4175,22.3525 V 117.7995 H 96.20734 V 85.42325 c 0,-14.845 -5.81625,-22.3525 -17.41875,-22.3525 -10.49375,0 -15.74,6.32875 -15.74,18.7975 v 59.15 H 38.90484 V 80.077 c 0,-12.455 3.17125,-22.3525 9.54125,-29.675 6.56875,-7.3225 15.17125,-11.07625 25.85,-11.07625 12.355,0 21.71125,4.74875 27.8975,14.2475 l 6.01375,10.08125 6.015,-10.08125 c 6.185,-9.49875 15.54125,-14.2475 27.8975,-14.2475 10.6775,0 19.28,3.75375 25.85,11.07625 6.36875,7.3225 9.54,17.22 9.54,29.675"
           id="path346" /></symbol><symbol
         id="microdotblog"
         fill-rule="evenodd"
         clip-rule="evenodd"
         stroke-linejoin="round"
         stroke-miterlimit="1.414"><path
           d="m 13.895818,12.353969 c -0.102327,0.222664 -0.174321,0.3921 -0.215982,0.508308 -0.145818,0.40674 -0.19223,0.733719 -0.206064,0.940885 -0.06907,1.034322 0.395792,1.648936 0.505469,1.812128 0.164385,0.244593 0.231089,0.381709 0.200112,0.411347 -0.06064,0.106523 -0.246367,0.106523 -0.55718,0 C 13.155952,15.866853 11.86715,15.366667 11.38151,14.661644 11.185955,14.377749 11.062051,14.25655 10.983802,14.213053 10.06177,14.554786 9.054721,14.742857 8,14.742857 3.581722,14.742857 0,11.442556 0,7.3714286 0,3.300301 3.581722,0 8,0 c 4.418278,0 8,3.300301 8,7.3714286 0,1.9210801 -0.797542,3.6705204 -2.104182,4.9825404 z M 7.9428571,9.7809524 C 9.516056,10.799026 10.370677,11.248327 10.50672,11.128855 10.642764,11.009383 10.479546,10.057748 10.017066,8.2739514 11.482708,7.1595416 12.174111,6.4855902 12.091275,6.2520973 12.008439,6.0186044 11.052943,5.8797628 9.2247888,5.8355725 8.6197005,4.103921 8.1923899,3.2380952 7.9428571,3.2380952 7.6933244,3.2380952 7.2660138,4.103921 6.6609255,5.8355725 4.8296035,5.8895112 3.874108,6.0283528 3.7944392,6.2520973 3.7147704,6.4758418 4.4061734,7.1497931 5.8686482,8.2739514 5.3678047,9.9975336 5.2045866,10.949168 5.3789938,11.128855 5.5534011,11.308542 6.4080222,10.859241 7.9428571,9.7809524 Z"
           id="path349" /></symbol><symbol
         id="telegram"
         fill-rule="evenodd"
         clip-rule="evenodd"
         stroke-linejoin="round"
         stroke-miterlimit="1.414"
         viewBox="0 0 1792 1792"><path
           d="m 1189,1307 147,-693 q 9,-44 -10.5,-63 -19.5,-19 -51.5,-7 L 410,877 q -29,11 -39.5,25 -10.5,14 -2.5,26.5 8,12.5 32,19.5 l 221,69 513,-323 q 21,-14 32,-6 7,5 -4,15 l -415,375 -16,228 q 23,0 45,-22 l 108,-104 224,165 q 64,36 81,-38 z m 603,-411 q 0,182 -71,348 -71,166 -191,286 -120,120 -286,191 -166,71 -348,71 -182,0 -348,-71 Q 382,1650 262,1530 142,1410 71,1244 0,1078 0,896 0,714 71,548 142,382 262,262 382,142 548,71 714,0 896,0 q 182,0 348,71 166,71 286,191 120,120 191,286 71,166 71,348 z"
           id="path352" /></symbol><symbol
         id="keybase"
         fill-rule="evenodd"
         clip-rule="evenodd"
         stroke-linejoin="round"
         stroke-miterlimit="1.414"
         viewBox="0 0 50 50"><path
           d="m 31.5,40 a 1.5,1.5 0 1 0 0,3 1.5,1.5 0 1 0 0,-3 z m -11,0 a 1.5,1.5 0 1 0 0,3 1.5,1.5 0 1 0 0,-3 z"
           id="path355" /><path
           fill="none"
           stroke="#000000"
           stroke-linecap="round"
           stroke-miterlimit="10"
           stroke-width="2"
           d="m 7.167,39 c 0.289,2.14 0.955,4.157 1.91,6 M 19.25,13 h -4.5 C 14.336,13 14,12.664 14,12.25 V 7.75 C 14,7.336 14.336,7 14.75,7 h 4.5 C 19.664,7 20,7.336 20,7.75 v 3"
           id="path357" /><path
           d="M 25.5,23 C 21.364,23 18,19.636 18,15.5 18,8.637 23.59,3.477 23.827,3.26 24.172,2.947 24.685,2.914 25.069,3.178 25.452,3.443 25.6,3.938 25.428,4.37 25,5.45 24.614,7.253 25.007,7.831 25.041,7.882 25.122,8 25.5,8 29.636,8 33,11.364 33,15.5 33,19.636 29.636,23 25.5,23 Z"
           id="path359" /><path
           d="M 44.938,34.942 C 44.456,28.784 41.127,23.35 36.06,20.105 c -0.041,-0.026 -0.081,-0.054 -0.122,-0.08 -0.336,-0.211 -0.681,-0.41 -1.031,-0.602 -0.123,-0.068 -0.244,-0.137 -0.369,-0.202 -0.082,-0.043 -0.168,-0.08 -0.251,-0.121 -0.63,1.531 -1.649,2.862 -2.932,3.871 l 3.352,3.352 c 0.391,0.391 0.391,1.023 0,1.414 -0.195,0.195 -0.451,0.293 -0.707,0.293 -0.256,0 -0.512,-0.098 -0.707,-0.293 L 32.456,26.9 30.648,28.708 C 30.453,28.902 30.197,29 29.941,29 c -0.256,0 -0.512,-0.098 -0.707,-0.293 -0.391,-0.391 -0.391,-1.023 0,-1.414 L 31.042,25.485 30,24.443 28.707,25.736 c -0.195,0.195 -0.451,0.293 -0.707,0.293 -0.256,0 -0.512,-0.098 -0.707,-0.293 C 27.057,25.5 26.982,25.179 27.03,24.874 26.532,24.955 26.021,25 25.5,25 21.467,25 18.022,22.47 16.646,18.917 9.218,22.402 5,30.302 5,41 v 3 l 1.8,-2.4 c 1.86,-2.48 4.12,-4.968 6.266,-6.95 -0.528,1.41 -0.882,2.821 -1.058,4.226 l -0.314,2.514 1.947,-1.622 C 13.697,39.721 19.437,35 26,35 c 3.219,0 4.979,0.298 6.531,0.562 C 33.861,35.787 35.118,36 37,36 c 3.1,0 4.797,-1.585 5.537,-3.485 0.197,0.844 0.336,1.707 0.407,2.586 C 42.98,35.564 43,36.03 43,36.5 c 0,2.818 -0.662,5.522 -1.968,8.04 -0.254,0.49 -0.063,1.094 0.427,1.348 0.147,0.076 0.305,0.112 0.46,0.112 0.361,0 0.711,-0.196 0.889,-0.54 C 44.263,42.656 45,39.642 45,36.5 45,35.977 44.979,35.457 44.938,34.942 Z"
           id="path361" /></symbol><symbol
         id="devto"
         fill-rule="evenodd"
         clip-rule="evenodd"
         stroke-linejoin="round"
         stroke-miterlimit="1.414"><path
           transform="scale(0.039)"
           d="M 10.5,2.5 C 5.6,4.2 2.4,7.8 1,12.9 0.3,15.6 0.1,77.2 0.2,207.1 0.5,396.6 0.5,397.5 2.5,401 c 1.2,1.9 3.6,4.3 5.5,5.5 3.5,2 4.2,2 196,2 191.8,0 192.5,0 196,-2 1.9,-1.2 4.3,-3.6 5.5,-5.5 2,-3.5 2,-4.2 2,-196 0,-191.8 0,-192.5 -2,-196 C 404.3,7.1 401.9,4.7 400,3.5 396.5,1.5 395.6,1.5 205.5,1.3 42.6,1.1 13.9,1.3 10.5,2.5 Z m 96.8,124 c 9,1.9 15.5,5.6 22.2,12.6 6.1,6.4 9.9,13.7 11.5,21.9 1.3,6.9 1.3,81.1 0,88.1 -3.4,18.2 -18.9,32.4 -38.1,34.9 -4,0.5 -17.4,1 -29.6,1 H 51 V 125 h 24.8 c 17.6,0 26.6,0.4 31.5,1.5 z m 130.7,13 V 154 h -51 v 36 h 31 v 29 h -31 l 0.2,18.2 0.3,18.3 25.3,0.3 25.2,0.2 v 29 h -29.5 c -32.8,0 -37.9,-0.6 -43.1,-5.2 -7.3,-6.4 -6.9,-2.3 -7.2,-72.6 -0.2,-43.8 0.1,-64.5 0.8,-67.3 1.4,-5.2 7.3,-11.6 12.5,-13.4 3.1,-1.1 10.9,-1.4 35.3,-1.5 H 238 Z m 48.9,-12.3 c 0.4,1.3 6.8,25.6 14.2,54 7.4,28.5 13.6,51.2 13.8,50.5 0.3,-0.7 6.6,-24.8 14.1,-53.7 l 13.7,-52.5 15.6,-0.3 c 11.8,-0.2 15.7,0.1 15.7,1 0,0.9 -34.6,132.4 -36.6,139 -1.4,4.6 -8.9,14 -13.1,16.5 -5.3,3 -13.1,3.5 -17.9,1 -4.3,-2.2 -10,-8.8 -12.9,-15 -1.8,-3.8 -31.2,-112 -38,-140 l -0.7,-2.7 h 15.6 c 15.3,0 15.7,0 16.5,2.2 z"
           id="path364" /><path
           transform="scale(0.039)"
           d="m 80,205 v 51.2 l 10.3,-0.4 c 8.9,-0.3 10.8,-0.7 14.8,-3 7.8,-4.6 7.9,-4.9 7.9,-48.4 0,-42.4 0,-42.4 -7.3,-47.2 -3.6,-2.4 -5.1,-2.7 -14.9,-3.1 L 80,153.8 Z"
           id="path366" /></symbol><symbol
         id="gitlab"
         fill-rule="evenodd"
         clip-rule="evenodd"
         stroke-linejoin="round"
         stroke-miterlimit="1.414"
         viewBox="0 0 1792 1792"><path
           d="M 104,706 896,1721 28,1091 Q 10,1078 3,1056.5 -4,1035 3,1014 Z m 462,0 h 660 L 896,1721 Z M 368,94 566,706 H 104 L 302,94 q 8,-23 33,-23 25,0 33,23 z m 1320,612 101,308 q 7,21 0,42.5 -7,21.5 -25,34.5 l -868,630 z m 0,0 H 1226 L 1424,94 q 8,-23 33,-23 25,0 33,23 z"
           id="path369" /></symbol></g><g
       id="g919"
       transform="matrix(0.26458333,0,0,0.26458333,54.628235,73.012936)"><path
         class="st0"
         d="M 256,128 C 256,198.7 198.7,256 128,256 57.3,256 0,198.7 0,128 0,57.3 57.3,0 128,0 198.7,0 256,57.3 256,128 Z"
         id="path898"
         style="fill:#808080" /><g
         id="g906">
	<path
   class="st1"
   d="M 86.3,186.2 H 70.9 V 79.1 h 15.4 v 48.4 z"
   id="path900" />
	<path
   class="st1"
   d="m 108.9,79.1 h 41.6 c 39.6,0 57,28.3 57,53.6 0,27.5 -21.5,53.6 -56.8,53.6 h -41.8 z m 15.4,93.3 h 24.5 c 34.9,0 42.9,-26.5 42.9,-39.7 C 191.7,111.2 178,93 148,93 h -23.7 z"
   id="path902" />
	<path
   class="st1"
   d="m 88.7,56.8 c 0,5.5 -4.5,10.1 -10.1,10.1 -5.6,0 -10.1,-4.6 -10.1,-10.1 0,-5.6 4.5,-10.1 10.1,-10.1 5.6,0 10.1,4.6 10.1,10.1 z"
   id="path904" />
</g></g></g><style
     type="text/css"
     id="style896">
	.st0{fill:#A6CE39;}
	.st1{fill:#FFFFFF;}
</style></svg>
