<?xml version="1.0" encoding="UTF-8" standalone="no"?>
<!-- Created with Inkscape (http://www.inkscape.org/) -->

<svg
   width="64.345085mm"
   height="74.433716mm"
   viewBox="0 0 64.345085 74.433716"
   version="1.1"
   id="svg5"
   xml:space="preserve"
   inkscape:version="1.2.1 (9c6d41e410, 2022-07-14, custom)"
   sodipodi:docname="scholar.svg"
   xmlns:inkscape="http://www.inkscape.org/namespaces/inkscape"
   xmlns:sodipodi="http://sodipodi.sourceforge.net/DTD/sodipodi-0.dtd"
   xmlns="http://www.w3.org/2000/svg"
   xmlns:svg="http://www.w3.org/2000/svg"><sodipodi:namedview
     id="namedview7"
     pagecolor="#ffffff"
     bordercolor="#666666"
     borderopacity="1.0"
     inkscape:showpageshadow="2"
     inkscape:pageopacity="0.0"
     inkscape:pagecheckerboard="0"
     inkscape:deskcolor="#d1d1d1"
     inkscape:document-units="mm"
     showgrid="false"
     inkscape:zoom="1.5518659"
     inkscape:cx="130.48808"
     inkscape:cy="226.82372"
     inkscape:window-width="1048"
     inkscape:window-height="1051"
     inkscape:window-x="6"
     inkscape:window-y="21"
     inkscape:window-maximized="1"
     inkscape:current-layer="layer1" /><defs
     id="defs2" /><g
     inkscape:label="Layer 1"
     inkscape:groupmode="layer"
     id="layer1"
     transform="translate(-65.194255,-53.010381)"><path
       style="fill:#808080;stroke-width:0.264583"
       d="m 91.325218,127.33271 c -4.50326,-0.3711 -8.807364,-1.85202 -11.663528,-4.01308 -4.622086,-3.4972 -5.830874,-8.82527 -3.266223,-14.39676 0.34625,-0.75219 1.409533,-2.09196 2.590096,-3.26359 3.774247,-3.74569 8.281845,-5.36064 18.076155,-6.476192 0.83675,-0.0953 1.52136,-0.26935 1.52136,-0.38677 0,-0.11742 -0.41509,-0.90281 -0.92242,-1.7453 -0.50732,-0.8425 -0.99786,-1.93401 -1.09007,-2.42558 -0.17372,-0.92596 -0.014,-3.23331 0.29086,-4.20196 0.16791,-0.53349 0.0655,-0.56066 -2.68993,-0.71363 -4.684497,-0.26007 -7.683496,-1.48122 -10.51504,-4.28158 -2.455463,-2.42842 -4.108898,-6.33197 -4.119494,-9.72561 l -0.0039,-1.25252 -7.169414,-0.0704 -7.169415,-0.0704 10.670167,-10.64948 10.670167,-10.649477 h 21.502371 c 11.82631,0 21.50238,0.04686 21.50238,0.104134 0,0.05728 -0.77153,0.860947 -1.71452,1.785938 l -1.71451,1.681803 -0.0362,2.801302 c -0.0346,2.67332 -0.005,2.83214 0.63864,3.47617 0.37118,0.37117 0.74804,1.07512 0.83748,1.56432 0.0894,0.4892 0.12709,5.81065 0.0837,11.82543 l -0.0789,10.93598 -0.86407,0.77184 c -1.37205,1.22559 -3.12691,0.90511 -3.89386,-0.71112 -0.36436,-0.76782 -0.4083,-2.33461 -0.34348,-12.24538 l 0.0743,-11.36491 0.59531,-0.63345 c 0.47328,-0.5036 0.59531,-0.94182 0.59531,-2.137755 0,-0.827366 -0.0939,-1.504302 -0.2086,-1.504302 -0.11473,0 -2.21435,2.018357 -4.66582,4.485227 -4.35548,4.38285 -4.45276,4.50514 -4.26213,5.35781 0.55632,2.48834 0.64777,3.10812 0.65836,4.46202 0.038,4.86236 -1.64722,8.05984 -6.36114,12.06907 -2.78473,2.36843 -3.6815,3.6936 -3.6815,5.44023 0,1.54955 0.83411,2.58112 4.39629,5.43701 3.42812,2.74841 6.46629,5.923762 7.36201,7.694442 2.99303,5.91668 0.88053,13.52056 -4.98042,17.9269 -1.91206,1.43751 -4.9391,3.00368 -7.32001,3.78734 -3.44216,1.13295 -8.939472,1.67413 -13.330312,1.31228 z m 12.148032,-4.34626 c 3.63145,-0.76415 6.45319,-2.76651 7.82114,-5.55002 0.53817,-1.09507 0.64902,-1.71027 0.64363,-3.57188 -0.008,-2.70922 -0.5597,-4.03644 -2.61253,-6.28318 -1.55748,-1.7046 -6.5628,-5.56006 -7.53512,-5.8041 -1.00983,-0.25345 -6.792912,0.3515 -9.106422,0.95259 -4.359321,1.13264 -7.460304,3.30714 -8.790343,6.16405 -0.874501,1.87842 -0.909476,4.80346 -0.08383,7.0102 2.133999,5.70363 11.014693,8.90225 19.663465,7.08234 z m -1.12053,-36.837162 c 1.67787,-0.73575 3.34705,-2.35226 4.07946,-3.95073 0.36795,-0.80306 0.46278,-1.74205 0.46272,-4.58193 -7e-5,-3.21257 -0.0753,-3.7981 -0.74764,-5.82083 -1.67754,-5.04666 -3.85964,-8.04664 -6.964832,-9.57532 -2.67689,-1.317825 -5.30556,-1.102031 -7.90845,0.64923 -2.938074,1.97677 -4.21139,5.95609 -3.406516,10.64588 0.839888,4.8938 2.288749,8.0835 4.850056,10.67752 2.86278,2.89933 6.02174,3.54068 9.635202,1.95618 z"
       id="path348"
       sodipodi:nodetypes="sssssssssssscccccsssccccscssccssssscsssssssssscsssssssssscsssss" /></g></svg>
